# xmcd
#
# Track frame offsets:
#	150
#	24082
#	39502
#	79030
#
# Disc length: 1493 seconds
#
# Revision: 2
# Processed by: cddbd v1.4PL0 Copyright (c) Steve Scherf et al.
# Submitted via: audiograbber 1.81.03
#
DISCID=1e05d304
DTITLE=Van Morrisson and John Lee Hooker - Gloria [CD Single)
DYEAR=1991
DGENRE=Blues
TTITLE0=Gloria
TTITLE1=It Must Be You (live)
TTITLE2=And The Healing Has Begun (Live)
TTITLE3=See Me Through (Live)
EXTD=
EXTT0=
EXTT1=
EXTT2=
EXTT3=
PLAYORDER=
